<svg xmlns="http://www.w3.org/2000/svg" width="734" height="165" viewBox="0 0 734 165">
  <path
    fill="#333"
    d="M18.235 101.708c-3.453 0-6.528-.591-9.224-1.773-2.696-1.183-4.825-2.791-6.386-4.825C1.065 93.029.19 90.71 0 88.157h11.99c.143 1.371.781 2.483 1.917 3.334 1.135.852 2.53 1.278 4.186 1.278 1.514 0 2.672-.284 3.477-.852.85-.615 1.277-1.395 1.277-2.341 0-1.136-.592-1.963-1.774-2.484-1.183-.567-3.098-1.182-5.747-1.844-2.838-.663-5.204-1.349-7.096-2.058a12.739 12.739 0 0 1-4.895-3.477c-1.372-1.608-2.058-3.76-2.058-6.456 0-2.27.615-4.329 1.845-6.173 1.277-1.892 3.122-3.382 5.534-4.47 2.46-1.088 5.369-1.632 8.727-1.632 4.967 0 8.87 1.23 11.707 3.69 2.886 2.46 4.541 5.723 4.967 9.79h-11.21c-.19-1.37-.805-2.459-1.845-3.263-.993-.804-2.318-1.206-3.973-1.206-1.42 0-2.507.284-3.264.851-.757.52-1.136 1.254-1.136 2.2 0 1.135.592 1.986 1.774 2.554 1.23.568 3.122 1.135 5.676 1.703 2.933.757 5.322 1.514 7.167 2.27 1.844.71 3.453 1.892 4.824 3.548 1.42 1.608 2.153 3.784 2.2 6.528 0 2.317-.662 4.399-1.987 6.243-1.277 1.798-3.145 3.217-5.605 4.258-2.412 1.04-5.227 1.56-8.443 1.56ZM63.759 90.853v10.288h-6.173c-4.399 0-7.828-1.064-10.288-3.193-2.46-2.176-3.69-5.7-3.69-10.572V71.625h-4.824V61.55h4.825V51.9H55.74v9.65h7.947v10.075h-7.947v15.893c0 1.183.284 2.034.852 2.554.567.52 1.513.78 2.838.78h4.328ZM88.539 101.708c-3.879 0-7.379-.827-10.5-2.483-3.076-1.655-5.512-4.02-7.309-7.095-1.75-3.075-2.625-6.67-2.625-10.785 0-4.068.898-7.639 2.696-10.714 1.797-3.121 4.257-5.51 7.379-7.166 3.122-1.655 6.622-2.483 10.5-2.483 3.88 0 7.38.828 10.502 2.483 3.122 1.656 5.581 4.044 7.379 7.166 1.797 3.075 2.696 6.646 2.696 10.714 0 4.068-.922 7.663-2.767 10.785-1.798 3.075-4.281 5.44-7.45 7.095-3.122 1.656-6.622 2.483-10.501 2.483Zm0-10.5c2.318 0 4.28-.852 5.89-2.555 1.655-1.703 2.482-4.139 2.482-7.308 0-3.169-.804-5.605-2.412-7.308-1.56-1.703-3.5-2.554-5.818-2.554-2.365 0-4.328.851-5.89 2.554-1.56 1.656-2.34 4.092-2.34 7.308 0 3.17.756 5.605 2.27 7.308 1.56 1.703 3.5 2.555 5.818 2.555ZM127.827 68.148c1.419-2.176 3.192-3.879 5.321-5.108 2.129-1.278 4.494-1.916 7.095-1.916v12.842h-3.334c-3.028 0-5.298.662-6.812 1.987-1.514 1.277-2.27 3.547-2.27 6.811v18.377h-12.133V61.549h12.133v6.6ZM186.485 61.55l-24.833 58.393h-13.055l9.082-20.15-16.106-38.244h13.551l9.153 24.763 9.082-24.762h13.126ZM196.549 101.708c-2.129 0-3.879-.614-5.251-1.844-1.324-1.277-1.986-2.838-1.986-4.683 0-1.892.662-3.477 1.986-4.754 1.372-1.277 3.122-1.916 5.251-1.916 2.081 0 3.784.639 5.108 1.916 1.372 1.277 2.058 2.862 2.058 4.754 0 1.845-.686 3.406-2.058 4.683-1.324 1.23-3.027 1.844-5.108 1.844ZM232.963 90.853v10.288h-6.172c-4.399 0-7.829-1.064-10.288-3.193-2.46-2.176-3.69-5.7-3.69-10.572V71.625h-4.825V61.55h4.825V51.9h12.133v9.65h7.947v10.075h-7.947v15.893c0 1.183.284 2.034.851 2.554.568.52 1.514.78 2.838.78h4.328ZM257.744 101.708c-3.879 0-7.379-.827-10.501-2.483-3.075-1.655-5.511-4.02-7.308-7.095-1.751-3.075-2.626-6.67-2.626-10.785 0-4.068.899-7.639 2.696-10.714 1.798-3.121 4.258-5.51 7.38-7.166 3.121-1.655 6.622-2.483 10.5-2.483 3.879 0 7.38.828 10.501 2.483 3.122 1.656 5.582 4.044 7.379 7.166 1.798 3.075 2.697 6.646 2.697 10.714 0 4.068-.923 7.663-2.768 10.785-1.797 3.075-4.28 5.44-7.449 7.095-3.122 1.656-6.623 2.483-10.501 2.483Zm0-10.5c2.317 0 4.28-.852 5.889-2.555 1.655-1.703 2.483-4.139 2.483-7.308 0-3.169-.804-5.605-2.412-7.308-1.561-1.703-3.501-2.554-5.819-2.554-2.365 0-4.328.851-5.889 2.554-1.561 1.656-2.341 4.092-2.341 7.308 0 3.17.757 5.605 2.27 7.308 1.561 1.703 3.501 2.555 5.819 2.555ZM290.574 101.708c-2.128 0-3.878-.614-5.25-1.844-1.324-1.277-1.987-2.838-1.987-4.683 0-1.892.663-3.477 1.987-4.754 1.372-1.277 3.122-1.916 5.25-1.916 2.082 0 3.785.639 5.109 1.916 1.372 1.277 2.058 2.862 2.058 4.754 0 1.845-.686 3.406-2.058 4.683-1.324 1.23-3.027 1.844-5.109 1.844ZM302.511 81.274c0-4.068.756-7.639 2.27-10.714 1.561-3.074 3.666-5.44 6.315-7.095 2.649-1.655 5.605-2.483 8.869-2.483 2.601 0 4.966.544 7.095 1.632 2.176 1.088 3.879 2.554 5.109 4.399V48.636h12.132v52.505h-12.132v-5.676c-1.136 1.892-2.768 3.405-4.896 4.541-2.081 1.135-4.517 1.702-7.308 1.702-3.264 0-6.22-.827-8.869-2.483-2.649-1.703-4.754-4.091-6.315-7.166-1.514-3.122-2.27-6.717-2.27-10.785Zm29.658.071c0-3.027-.852-5.416-2.555-7.166-1.655-1.75-3.689-2.625-6.102-2.625-2.412 0-4.47.875-6.172 2.625-1.656 1.703-2.484 4.068-2.484 7.095 0 3.028.828 5.44 2.484 7.237 1.702 1.75 3.76 2.626 6.172 2.626 2.413 0 4.447-.876 6.102-2.626 1.703-1.75 2.555-4.138 2.555-7.166ZM390.4 80.707a30.95 30.95 0 0 1-.213 3.547h-27.458c.189 2.46.969 4.352 2.341 5.676 1.419 1.278 3.145 1.916 5.179 1.916 3.028 0 5.133-1.277 6.315-3.831h12.914a17.503 17.503 0 0 1-3.619 7.024c-1.703 2.081-3.855 3.713-6.457 4.896-2.601 1.182-5.51 1.773-8.727 1.773-3.879 0-7.332-.827-10.359-2.483-3.027-1.655-5.392-4.02-7.095-7.095-1.703-3.075-2.554-6.67-2.554-10.785s.827-7.71 2.483-10.785c1.703-3.074 4.068-5.44 7.095-7.095 3.027-1.655 6.504-2.483 10.43-2.483 3.832 0 7.237.804 10.217 2.412 2.98 1.608 5.298 3.903 6.954 6.883 1.702 2.98 2.554 6.456 2.554 10.43Zm-12.417-3.193c0-2.081-.709-3.737-2.128-4.967-1.419-1.23-3.193-1.845-5.322-1.845-2.034 0-3.76.592-5.179 1.774-1.372 1.183-2.223 2.862-2.555 5.038h15.184ZM412.907 101.708c-3.453 0-6.528-.591-9.224-1.773-2.696-1.183-4.825-2.791-6.386-4.825-1.561-2.081-2.436-4.4-2.625-6.953h11.991c.142 1.371.78 2.483 1.916 3.334 1.135.852 2.53 1.278 4.186 1.278 1.513 0 2.672-.284 3.477-.852.851-.615 1.277-1.395 1.277-2.341 0-1.136-.592-1.963-1.774-2.484-1.183-.567-3.098-1.182-5.747-1.844-2.838-.663-5.203-1.349-7.096-2.058a12.739 12.739 0 0 1-4.895-3.477c-1.372-1.608-2.058-3.76-2.058-6.456 0-2.27.615-4.329 1.845-6.173 1.277-1.892 3.122-3.382 5.534-4.47 2.46-1.088 5.369-1.632 8.727-1.632 4.967 0 8.869 1.23 11.707 3.69 2.886 2.46 4.541 5.723 4.967 9.79h-11.21c-.19-1.37-.804-2.459-1.845-3.263-.993-.804-2.318-1.206-3.973-1.206-1.419 0-2.507.284-3.264.851-.757.52-1.135 1.254-1.135 2.2 0 1.135.591 1.986 1.773 2.554 1.23.568 3.122 1.135 5.677 1.703 2.932.757 5.321 1.514 7.166 2.27 1.844.71 3.453 1.892 4.824 3.548 1.419 1.608 2.153 3.784 2.2 6.528 0 2.317-.662 4.399-1.987 6.243-1.277 1.798-3.145 3.217-5.605 4.258-2.412 1.04-5.227 1.56-8.443 1.56ZM442.467 57.434c-2.129 0-3.879-.615-5.251-1.844-1.324-1.278-1.986-2.839-1.986-4.683 0-1.892.662-3.453 1.986-4.683 1.372-1.277 3.122-1.916 5.251-1.916 2.081 0 3.784.639 5.108 1.916 1.372 1.23 2.058 2.79 2.058 4.683 0 1.844-.686 3.405-2.058 4.683-1.324 1.23-3.027 1.844-5.108 1.844Zm6.031 4.116v39.591h-12.133V61.549h12.133ZM472.332 60.982c2.791 0 5.227.568 7.308 1.703 2.129 1.135 3.761 2.625 4.896 4.47V61.55h12.133v39.52c0 3.642-.733 6.93-2.2 9.862-1.419 2.98-3.618 5.345-6.598 7.096-2.933 1.75-6.599 2.625-10.998 2.625-5.865 0-10.619-1.396-14.261-4.186-3.643-2.744-5.724-6.481-6.244-11.211h11.991c.378 1.514 1.277 2.696 2.696 3.548 1.419.898 3.169 1.348 5.25 1.348 2.507 0 4.494-.733 5.96-2.2 1.514-1.419 2.271-3.713 2.271-6.882v-5.605c-1.183 1.844-2.815 3.358-4.896 4.541-2.081 1.135-4.517 1.702-7.308 1.702-3.264 0-6.22-.827-8.869-2.483-2.649-1.703-4.754-4.091-6.315-7.166-1.513-3.122-2.27-6.717-2.27-10.785 0-4.068.757-7.639 2.27-10.714 1.561-3.074 3.666-5.44 6.315-7.095 2.649-1.655 5.605-2.483 8.869-2.483Zm12.204 20.363c0-3.027-.852-5.416-2.554-7.166-1.656-1.75-3.69-2.625-6.102-2.625-2.413 0-4.47.875-6.173 2.625-1.656 1.703-2.483 4.068-2.483 7.095 0 3.028.827 5.44 2.483 7.237 1.703 1.75 3.76 2.626 6.173 2.626 2.412 0 4.446-.876 6.102-2.626 1.702-1.75 2.554-4.138 2.554-7.166ZM529.57 61.124c4.636 0 8.325 1.513 11.069 4.54 2.79 2.98 4.186 7.096 4.186 12.346v23.131h-12.062V79.642c0-2.648-.686-4.706-2.058-6.172-1.371-1.467-3.216-2.2-5.534-2.2-2.318 0-4.163.733-5.534 2.2-1.372 1.466-2.058 3.523-2.058 6.172v21.499h-12.133V61.549h12.133V66.8c1.23-1.75 2.886-3.122 4.967-4.115 2.081-1.04 4.422-1.561 7.024-1.561Z"
  />
  <mask id="a" width="134" height="165" x="572" y="0" maskUnits="userSpaceOnUse" style="mask-type: alpha">
    <path
      fill="#fff"
      d="m577.739 152.177-4.953-136.055c0-4.536 3.302-8.246 7.843-8.659l115.57-7.42a8.262 8.262 0 0 1 8.261 4.604c.49 1.01.769 2.108.819 3.229.003.137.003.275 0 .412v148.424c0 2.187-.87 4.285-2.418 5.831a8.261 8.261 0 0 1-5.837 2.415 7.109 7.109 0 0 1-.413 0l-110.617-4.947a8.261 8.261 0 0 1-5.837-2.415 8.243 8.243 0 0 1-2.418-5.831v.412Z"
    />
  </mask>
  <g mask="url(#a)">
    <path
      fill="#FF4785"
      d="m577.739 152.177-4.953-136.055c0-4.536 3.302-8.246 7.843-8.659l115.57-7.42a8.262 8.262 0 0 1 8.261 4.604c.49 1.01.769 2.108.819 3.229.003.137.003.275 0 .412v148.424c0 2.187-.87 4.285-2.418 5.831a8.261 8.261 0 0 1-5.837 2.415 7.109 7.109 0 0 1-.413 0l-110.617-4.947a8.261 8.261 0 0 1-5.837-2.415 8.243 8.243 0 0 1-2.418-5.831v.412Z"
    />
    <path
      fill="#fff"
      d="m670.608 20.656 1.239-19.79L687.944-.37l.412 19.79a1.23 1.23 0 0 1-.774 1.055 1.241 1.241 0 0 1-1.289-.23l-6.191-4.535-7.017 5.772a1.24 1.24 0 0 1-2.039-.428 1.233 1.233 0 0 1-.025-.809l-.413.412Zm-20.637 41.23c0 3.71 21.876 2.06 24.765 0 0-22.264-11.557-33.809-33.02-33.809-21.876 0-33.846 11.545-33.846 29.273 0 30.51 41.275 31.334 41.275 47.826 0 4.947-2.063 7.833-7.429 7.833-6.604 0-9.081-3.71-8.668-14.842 0-2.474-25.178-3.299-26.003 0-2.064 27.623 15.272 35.457 35.084 35.457 18.986 0 34.258-10.307 34.258-28.861 0-32.57-42.101-31.746-42.101-47.825 0-6.597 4.953-7.421 8.255-7.421 2.477 0 8.255 0 7.843 12.368h-.413Z"
    />
  </g>
  <g filter="url(#b)">
    <rect
      width="174.835"
      height="44.054"
      x="551.598"
      y="106.695"
      fill="#1EA7FD"
      rx="4.54"
      shape-rendering="crispEdges"
    />
    <path
      fill="#fff"
      d="m589.357 140.246-14.377-9.534v-3.103l14.377-9.534v4.048l-10.707 6.962v.151l10.707 6.962v4.048Zm13.795 1.93c-2.371 0-4.288-.858-5.751-2.573-1.463-1.715-2.194-4.099-2.194-7.151 0-2.018.391-3.758 1.173-5.221s1.803-2.586 3.065-3.367c1.261-.782 2.585-1.173 3.972-1.173 1.06 0 1.993.189 2.8.567a7.88 7.88 0 0 1 2.308 1.627h.113l-.227-3.14v-6.735h4.389v26.712h-3.594l-.341-2.157h-.113c-.706.706-1.551 1.324-2.535 1.854a6.64 6.64 0 0 1-3.065.757Zm1.06-3.595a4.85 4.85 0 0 0 2.194-.529c.706-.379 1.375-.946 2.005-1.703v-8.361c-.655-.631-1.311-1.072-1.967-1.325a5.548 5.548 0 0 0-2.005-.378c-.858 0-1.652.24-2.384.719-.706.479-1.274 1.173-1.702 2.081-.429.908-.644 2.018-.644 3.329 0 1.993.391 3.519 1.173 4.578.807 1.06 1.917 1.589 3.33 1.589Zm24.162 3.595c-1.892 0-3.607-.379-5.146-1.135a9.168 9.168 0 0 1-3.67-3.33c-.908-1.463-1.362-3.228-1.362-5.297 0-2.018.454-3.745 1.362-5.183.908-1.463 2.094-2.586 3.556-3.367a9.805 9.805 0 0 1 4.692-1.173c1.841 0 3.393.378 4.654 1.135a7.296 7.296 0 0 1 2.913 3.14c.681 1.312 1.022 2.825 1.022 4.54 0 .429-.026.845-.076 1.249a7.364 7.364 0 0 1-.114.946h-14.869v-3.103h12.07l-.833.984c0-1.841-.416-3.216-1.248-4.124-.807-.933-1.942-1.4-3.405-1.4-1.035 0-1.968.24-2.8.719-.807.479-1.451 1.198-1.93 2.156-.479.934-.719 2.094-.719 3.481 0 1.438.265 2.623.795 3.557a5.41 5.41 0 0 0 2.27 2.119c.984.479 2.119.718 3.405.718.984 0 1.892-.138 2.724-.416a13.634 13.634 0 0 0 2.497-1.135l1.476 2.724a15.597 15.597 0 0 1-3.33 1.589 12.582 12.582 0 0 1-3.934.606Zm11.941-.454v-18.577h3.367l.341 2.345h.113c.404-.807.921-1.475 1.551-2.005.631-.53 1.488-.794 2.573-.794.858 0 1.576.264 2.157.794.58.505.983 1.274 1.21 2.308.429-.908.971-1.652 1.627-2.232.656-.58 1.526-.87 2.611-.87 1.311 0 2.32.517 3.027 1.551.731 1.009 1.097 2.447 1.097 4.313v13.167h-4.2v-12.864c0-1.64-.492-2.46-1.475-2.46-.505 0-.934.19-1.287.568-.328.378-.681.971-1.059 1.778v12.978h-3.632v-12.864c0-.807-.114-1.413-.341-1.816-.227-.429-.605-.644-1.135-.644-.479 0-.895.19-1.248.568-.354.378-.707.971-1.06 1.778v12.978h-4.237Zm32.296.454a9.553 9.553 0 0 1-4.578-1.135c-1.413-.782-2.56-1.892-3.443-3.33-.883-1.463-1.324-3.216-1.324-5.259 0-2.068.441-3.821 1.324-5.259.883-1.463 2.03-2.573 3.443-3.329a9.3 9.3 0 0 1 4.578-1.173c1.64 0 3.166.391 4.578 1.173 1.413.756 2.56 1.866 3.443 3.329.883 1.438 1.324 3.191 1.324 5.259 0 2.043-.441 3.796-1.324 5.259-.883 1.438-2.03 2.548-3.443 3.33a9.55 9.55 0 0 1-4.578 1.135Zm0-3.557c1.009 0 1.879-.252 2.611-.756.731-.505 1.286-1.224 1.664-2.157.379-.933.568-2.018.568-3.254 0-1.236-.189-2.32-.568-3.254-.378-.933-.933-1.652-1.664-2.156-.732-.53-1.602-.795-2.611-.795-1.009 0-1.879.265-2.611.795-.706.504-1.261 1.223-1.664 2.156-.379.934-.568 2.018-.568 3.254 0 1.236.189 2.321.568 3.254.403.933.958 1.652 1.664 2.157.732.504 1.602.756 2.611.756Zm15.195 1.627v-4.048l10.707-6.962v-.151l-10.707-6.962v-4.048l14.377 9.534v3.103l-14.377 9.534Z"
    />
  </g>
  <defs>
    <filter
      id="b"
      width="180.889"
      height="50.107"
      x="548.571"
      y="103.668"
      color-interpolation-filters="sRGB"
      filterUnits="userSpaceOnUse"
    >
      <feFlood flood-opacity="0" result="BackgroundImageFix" />
      <feColorMatrix in="SourceAlpha" result="hardAlpha" values="0 0 0 0 0 0 0 0 0 0 0 0 0 0 0 0 0 0 127 0" />
      <feOffset />
      <feGaussianBlur stdDeviation="1.513" />
      <feComposite in2="hardAlpha" operator="out" />
      <feColorMatrix values="0 0 0 0 0 0 0 0 0 0 0 0 0 0 0 0 0 0 0.25 0" />
      <feBlend in2="BackgroundImageFix" result="effect1_dropShadow_97_381" />
      <feBlend in="SourceGraphic" in2="effect1_dropShadow_97_381" result="shape" />
    </filter>
  </defs>
</svg>
